# Created by Open3D 
# object name: box_template
# number of vertices: 8
# number of triangles: 12
v 1 1 1
vn 0.333333 0.333333 0.333333
v -1 1 1
vn -0.333333 0.333333 0.333333
v 1 -1 1
vn 0.333333 -0.333333 0.333333
v -1 -1 1
vn -0.333333 -0.333333 0.333333
v 1 1 -1
vn 0.333333 0.333333 -0.333333
v 1 -1 -1
vn 0.333333 -0.333333 -0.333333
v -1 1 -1
vn -0.333333 0.333333 -0.333333
v -1 -1 -1
vn -0.333333 -0.333333 -0.333333
f 2//2 7//7 4//4
f 3//3 4//4 6//6
f 4//4 8//8 6//6
f 5//5 6//6 7//7
f 2//2 5//5 7//7
f 1//1 5//5 2//2
f 6//6 8//8 7//7
f 1//1 3//3 5//5
f 2//2 4//4 3//3
f 4//4 7//7 8//8
f 3//3 6//6 5//5
f 1//1 2//2 3//3
